<?xml version="1.0" encoding="UTF-8"?> <svg xmlns="http://www.w3.org/2000/svg" width="108" height="40" viewBox="0 0 108 40" fill="none"><g clip-path="url(#clip0_2804_46067)"><path d="M2.43808 29.0932C3.78459 29.0932 4.87616 28.0016 4.87616 26.6551C4.87616 25.3086 3.78459 24.217 2.43808 24.217C1.09157 24.217 0 25.3086 0 26.6551C0 28.0016 1.09157 29.0932 2.43808 29.0932Z" fill="#8EC89A"></path><path d="M16.8856 6.10815C13.9478 6.10815 11.191 7.25396 9.11475 9.33021L12.5694 12.7849C13.7238 11.6304 15.2573 10.9929 16.8856 10.9929C18.5138 10.9929 20.0473 11.6304 21.2018 12.7849L24.6564 9.33021C22.5802 7.25396 19.8233 6.10815 16.8856 6.10815Z" fill="#554596"></path><path d="M16.8857 23.2005C13.5172 23.2005 10.7776 20.4609 10.7776 17.0924C10.7776 15.4641 11.4151 13.9306 12.5695 12.7762L9.11488 9.32153C7.03863 11.3978 5.89282 14.1546 5.89282 17.0924C5.89282 23.1488 10.8207 28.0853 16.8857 28.0853C18.2383 28.0853 19.3238 26.9911 19.3238 25.6472C19.3238 24.3032 18.2297 23.2091 16.8857 23.2091V23.2005Z" fill="#8EC89A"></path><path d="M50.0022 10.9929C51.6304 10.9929 53.1639 11.6304 54.3183 12.7849L57.773 9.33021C55.6968 7.25396 52.9399 6.10815 50.0022 6.10815C47.0644 6.10815 44.3076 7.25396 42.2313 9.33021C40.1551 11.4065 39.0093 14.1633 39.0093 17.101C39.0093 20.0388 40.1551 22.7956 42.2313 24.8719C44.3076 26.9481 47.0644 28.0939 50.0022 28.0939C52.9399 28.0939 55.6968 26.9481 57.773 24.8719L54.3183 21.4172C53.1639 22.5716 51.6304 23.2092 50.0022 23.2092C48.3739 23.2092 46.8404 22.5716 45.686 21.4258C44.5316 20.2714 43.8941 18.7379 43.8941 17.1097C43.8941 15.4814 44.5316 13.9479 45.686 12.7935C46.8404 11.6391 48.3739 11.0015 50.0022 11.0015V10.9929Z" fill="#554596"></path><path d="M66.0693 6.10815H61.1846V28.0853H74.6155V23.2006H66.0693V6.10815Z" fill="#554596"></path><path d="M33.4612 6.84043L25.1045 15.3866C24.6393 15.8605 24.4153 16.4807 24.4153 17.0924V28.0853H29.3001V18.0918L36.9589 10.2606C37.8979 9.29574 37.8807 7.75363 36.9158 6.80597C35.9509 5.86692 34.4088 5.87554 33.4612 6.84043Z" fill="#554596"></path><path d="M84.0491 6.10815H79.1643V28.0853H84.0491V6.10815Z" fill="#554596"></path><path d="M97.9107 14.663C96.1274 14.4993 93.1466 14.0341 93.1466 12.8193C93.1466 11.1652 96.3169 10.9929 97.6781 10.9929C99.3064 10.9929 100.84 11.6304 101.994 12.7849L105.449 9.33021C103.373 7.25397 100.616 6.10815 97.6781 6.10815C88.9338 6.10815 88.2618 11.2514 88.2618 12.8193C88.2618 16.6961 91.3546 18.9533 97.4541 19.5219C99.2374 19.6856 102.218 20.1508 102.218 21.3655C102.218 23.0196 99.0479 23.1919 97.6867 23.1919C95.2142 23.1919 92.8881 22.227 91.1392 20.4782L87.6846 23.9328C90.3553 26.6035 93.9047 28.0767 97.6867 28.0767C106.431 28.0767 107.103 22.9335 107.103 21.3655C107.103 17.4887 104.01 15.2316 97.9107 14.663Z" fill="#554596"></path><path d="M28.3867 4.16967C29.343 3.2134 29.343 1.67129 28.3867 0.715011C27.4304 -0.241267 25.8883 -0.241267 24.9321 0.715011C23.9758 1.67129 23.9758 3.2134 24.9321 4.16967C25.8883 5.12595 27.4304 5.12595 28.3867 4.16967Z" fill="#554596"></path><g style="mix-blend-mode:multiply" opacity="0.5"><path d="M10.7861 17.0924H5.90137C5.90137 14.1546 7.04718 11.3978 9.12342 9.32153L12.5781 12.7762C11.4237 13.9306 10.7861 15.4641 10.7861 17.0924Z" fill="#554596"></path></g><path d="M24.4066 34.426H27.4822C28.4557 34.426 29.1536 35.0291 29.1536 35.8906C29.1536 36.33 28.9468 36.7004 28.6022 36.9072V36.9244C29.0588 37.1484 29.3431 37.6136 29.3431 38.1736C29.3431 39.3022 28.6453 39.8535 27.2065 39.8535H24.3894V34.426H24.4066ZM27.241 36.5281C27.6028 36.5281 27.7924 36.3644 27.7924 36.0543C27.7924 35.7614 27.6028 35.5891 27.241 35.5891H25.7678V36.5281H27.241ZM27.3616 38.6905C27.7924 38.6905 27.9905 38.501 27.9905 38.1219C27.9905 37.7687 27.7838 37.5792 27.3616 37.5792H25.7678V38.6905H27.3616Z" fill="#554596"></path><path d="M31.6951 34.426H33.0735V39.8535H31.6951V34.426Z" fill="#554596"></path><path d="M35.6666 34.426H37.0451V36.7004H37.0623L39.1472 34.426H40.9736L38.7595 36.778L40.9994 39.8535H39.2764L37.8377 37.6998H37.8204L37.0278 38.5527V39.8535H35.6494V34.426H35.6666Z" fill="#554596"></path><path d="M43.0325 34.426H47.2194V35.6321H44.4109V36.554H46.9523V37.6653H44.4109V38.656H47.228V39.8622H43.0325V34.4346V34.426Z" fill="#554596"></path><path d="M53.0777 34.426H54.4561V38.6474H57.2216V39.8535H53.0691V34.426H53.0777Z" fill="#554596"></path><path d="M59.3582 34.426H63.5451V35.6321H60.7366V36.554H63.278V37.6653H60.7366V38.656H63.5537V39.8622H59.3582V34.4346V34.426Z" fill="#554596"></path><path d="M69.8428 39.0523H67.241L66.905 39.8621H65.4663L67.8958 34.4346H69.1794L71.6089 39.8621H70.1788L69.8428 39.0523ZM69.3603 37.8806L68.5419 35.8991H68.5247L67.7062 37.8806H69.3517H69.3603Z" fill="#554596"></path><path d="M73.1079 38.0357L74.4174 37.8031C74.5897 38.5612 75.0291 38.8799 75.8734 38.8799C76.5195 38.8799 76.8986 38.6904 76.8986 38.3544C76.8986 38.0443 76.6229 37.8634 75.3048 37.5704C73.9436 37.2603 73.2974 36.7779 73.2974 35.9336C73.2974 34.9687 74.1934 34.2881 75.5718 34.2881C76.8641 34.2881 77.8635 34.9342 78.1047 35.9422L76.8038 36.2265C76.6143 35.6837 76.2007 35.3994 75.5718 35.3994C75.0291 35.3994 74.6759 35.5976 74.6759 35.9077C74.6759 36.1576 74.9343 36.2782 76.1921 36.5625C77.5705 36.8812 78.2856 37.3809 78.2856 38.32C78.2856 39.3452 77.3379 39.9999 75.8734 39.9999C74.314 39.9999 73.3147 39.2849 73.1165 38.027L73.1079 38.0357Z" fill="#554596"></path><path d="M80.5342 34.426H84.7211V35.6321H81.9126V36.554H84.4541V37.6653H81.9126V38.656H84.7297V39.8622H80.5342V34.4346V34.426Z" fill="#554596"></path></g><defs><clipPath id="clip0_2804_46067"><rect width="107.095" height="40" fill="white"></rect></clipPath></defs></svg> 