<svg xmlns="http://www.w3.org/2000/svg" width="283.465" height="170.925" viewBox="0 0 283.465 170.925">
  <g id="Group_2047" data-name="Group 2047" transform="translate(-612.362 719.751)">
    <path id="Path_8761" data-name="Path 8761" d="M612.362-623.579v42.842h25.093v-9.426h-15.3v-33.416Z" fill="#2e3338"/>
    <g id="Group_2040" data-name="Group 2040">
      <path id="Path_8762" data-name="Path 8762" d="M637.455-590.162v9.426H612.362v-42.842h9.792v33.416Z" fill="#2e3338"/>
    </g>
    <path id="Path_8763" data-name="Path 8763" d="M702.614-623.579h10.711l9.485,31.519,9.487-31.519h10.71l-13.954,42.842H716.568Z" fill="#2e3338"/>
    <path id="Path_8764" data-name="Path 8764" d="M702.614-623.579h10.711l9.485,31.519,9.487-31.519h10.71l-13.954,42.842H716.568Z" fill="#2e3338"/>
    <path id="Path_8765" data-name="Path 8765" d="M779.3-590.162v9.426H752.377v-42.842H779v9.426H762.169v7.1h15.3v9.3h-15.3v7.589Z" fill="#2e3338"/>
    <path id="Path_8766" data-name="Path 8766" d="M779.3-590.162v9.426H752.377v-42.842H779v9.426H762.169v7.1h15.3v9.3h-15.3v7.589Z" fill="#2e3338"/>
    <path id="Path_8767" data-name="Path 8767" d="M825.474-623.579v42.842H818.13l-16.524-23.257v23.257h-9.792v-42.842h7.344l16.524,23.257v-23.257Z" fill="#2e3338"/>
    <path id="Path_8768" data-name="Path 8768" d="M825.474-623.579v42.842H818.13l-16.524-23.257v23.257h-9.792v-42.842h7.344l16.524,23.257v-23.257Z" fill="#2e3338"/>
    <rect id="Rectangle_2826" data-name="Rectangle 2826" width="9.792" height="42.842" transform="translate(839.281 -623.579)" fill="#2e3338"/>
    <rect id="Rectangle_2827" data-name="Rectangle 2827" width="9.792" height="42.842" transform="translate(839.281 -623.579)" fill="#2e3338"/>
    <g id="Group_2041" data-name="Group 2041">
      <path id="Path_8769" data-name="Path 8769" d="M872.571-603.381h7.343c2.694,0,4.9-2.387,4.9-5.509s-2.2-5.507-4.9-5.507h-7.343Zm4.651,8.568h-4.651v14.077h-9.793v-42.842h17.136A14.653,14.653,0,0,1,894.6-608.89a14.118,14.118,0,0,1-7.9,12.424l9.119,15.73H885.3Z" fill="#2e3338"/>
      <path id="Path_8770" data-name="Path 8770" d="M872.571-603.381h7.343c2.694,0,4.9-2.387,4.9-5.509s-2.2-5.507-4.9-5.507h-7.343Zm4.651,8.568h-4.651v14.077h-9.793v-42.842h17.136A14.653,14.653,0,0,1,894.6-608.89a14.118,14.118,0,0,1-7.9,12.424l9.119,15.73H885.3Z" fill="#2e3338"/>
    </g>
    <path id="Path_8771" data-name="Path 8771" d="M673.538-596.65l5.019-15.729,5.018,15.729ZM684.8-623.579H664.971l5.48,5.481-12.7,37.361h10.71l2.142-6.733h15.913l2.141,6.733h10.711Z" fill="#2e3338"/>
    <path id="Path_8772" data-name="Path 8772" d="M673.538-596.65l5.019-15.729,5.018,15.729ZM684.8-623.579H664.971l5.48,5.481-12.7,37.361h10.71l2.142-6.733h15.913l2.141,6.733h10.711Z" fill="#2e3338"/>
    <path id="Path_8773" data-name="Path 8773" d="M647.25-608.888l-9.793-9.794v-4.9h9.793Z" fill="#2e3338"/>
    <path id="Path_8774" data-name="Path 8774" d="M647.25-608.888l-9.793-9.794v-4.9h9.793Z" fill="#2e3338"/>
    <g id="Group_2042" data-name="Group 2042">
      <path id="Path_8775" data-name="Path 8775" d="M781.517-719.751H779.11L724.4-667.658a20.119,20.119,0,0,1-17.816-19.962A20.119,20.119,0,0,1,724.4-707.582l10.911,10.388h8.732v-8.312L729.08-719.751h-2.408a32.168,32.168,0,0,0-32.131,32.131,32.168,32.168,0,0,0,32.131,32.131h2.408l54.711-52.093a20.119,20.119,0,0,1,17.816,19.962,20.119,20.119,0,0,1-17.816,19.962l-10.907-10.385h-8.73v8.313l14.956,14.241h2.407a32.168,32.168,0,0,0,32.131-32.131,32.168,32.168,0,0,0-32.131-32.131" fill="#2e3338"/>
      <path id="Path_8776" data-name="Path 8776" d="M781.517-719.751H779.11L724.4-667.658a20.119,20.119,0,0,1-17.816-19.962A20.119,20.119,0,0,1,724.4-707.582l10.911,10.388h8.732v-8.312L729.08-719.751h-2.408a32.168,32.168,0,0,0-32.131,32.131,32.168,32.168,0,0,0,32.131,32.131h2.408l54.711-52.093a20.119,20.119,0,0,1,17.816,19.962,20.119,20.119,0,0,1-17.816,19.962l-10.907-10.385h-8.73v8.313l14.956,14.241h2.407a32.168,32.168,0,0,0,32.131-32.131A32.168,32.168,0,0,0,781.517-719.751Z" fill="#2e3338"/>
    </g>
    <path id="Path_8777" data-name="Path 8777" d="M716.894-564.692v15.775h5.184v-1.306h-3.7v-6.153h3.064v-1.306h-3.064v-5.68h3.7v-1.33Z" fill="#2e3338"/>
    <g id="Group_2043" data-name="Group 2043">
      <path id="Path_8778" data-name="Path 8778" d="M716.893-548.916h5.184v-1.307h-3.7v-6.152h3.065v-1.307h-3.065v-5.679h3.7v-1.33h-5.184Z" fill="#2e3338"/>
      <path id="Path_8779" data-name="Path 8779" d="M730.016-564.782h-1.239a2.571,2.571,0,0,0-1.983.7,2.247,2.247,0,0,0-.676,1.824v2.188c0,1.554.879,2.343,2.1,3.154l1.6,1.037a2.214,2.214,0,0,1,1.307,2.163v2.343c0,.745-.474,1.219-1.443,1.219H729c-.969,0-1.442-.474-1.442-1.219l-1.488.024a2.3,2.3,0,0,0,.675,1.848,2.668,2.668,0,0,0,1.983.675h1.217a2.644,2.644,0,0,0,1.962-.675,2.342,2.342,0,0,0,.7-1.848v-2.727c0-1.578-.969-2.413-2.187-3.2l-1.555-1.015a2.179,2.179,0,0,1-1.262-2.163v-1.78c0-.743.473-1.217,1.464-1.217h.677c.879,0,1.375.474,1.375,1.217l1.488-.024a2.292,2.292,0,0,0-.655-1.8,2.524,2.524,0,0,0-1.938-.721" fill="#2e3338"/>
      <path id="Path_8780" data-name="Path 8780" d="M730.016-564.782h-1.239a2.571,2.571,0,0,0-1.983.7,2.247,2.247,0,0,0-.676,1.824v2.188c0,1.554.879,2.343,2.1,3.154l1.6,1.037a2.214,2.214,0,0,1,1.307,2.163v2.343c0,.745-.474,1.219-1.443,1.219H729c-.969,0-1.442-.474-1.442-1.219l-1.488.024a2.3,2.3,0,0,0,.675,1.848,2.668,2.668,0,0,0,1.983.675h1.217a2.644,2.644,0,0,0,1.962-.675,2.342,2.342,0,0,0,.7-1.848v-2.727c0-1.578-.969-2.413-2.187-3.2l-1.555-1.015a2.179,2.179,0,0,1-1.262-2.163v-1.78c0-.743.473-1.217,1.464-1.217h.677c.879,0,1.375.474,1.375,1.217l1.488-.024a2.292,2.292,0,0,0-.655-1.8A2.524,2.524,0,0,0,730.016-564.782Z" fill="#2e3338"/>
    </g>
    <path id="Path_8781" data-name="Path 8781" d="M736.368-564.692v1.33h2.457v14.445h1.464v-14.445h2.48v-1.33Z" fill="#2e3338"/>
    <g id="Group_2044" data-name="Group 2044">
      <path id="Path_8782" data-name="Path 8782" d="M736.368-563.361h2.457v14.445h1.465v-14.445h2.479v-1.33h-6.4Z" fill="#2e3338"/>
    </g>
    <rect id="Rectangle_2828" data-name="Rectangle 2828" width="1.599" height="2.028" transform="translate(745.114 -550.945)" fill="#2e3338"/>
    <g id="Group_2045" data-name="Group 2045">
      <rect id="Rectangle_2829" data-name="Rectangle 2829" width="1.6" height="2.028" transform="translate(745.113 -550.945)" fill="#2e3338"/>
    </g>
    <path id="Path_8783" data-name="Path 8783" d="M755.013-564.692v1.33h1.892v14.445h1.488v-15.775Z" fill="#2e3338"/>
    <g id="Group_2046" data-name="Group 2046">
      <path id="Path_8784" data-name="Path 8784" d="M755.014-563.361h1.892v14.445h1.488v-15.775h-3.38Z" fill="#2e3338"/>
      <path id="Path_8785" data-name="Path 8785" d="M778.995-561.4v3.93h-2.028c-.969,0-1.442-.473-1.442-1.238v-3.527c0-.744.473-1.217,1.442-1.217h.585c.969,0,1.443.473,1.443,1.217Zm.765-2.707a2.582,2.582,0,0,0-1.938-.675H776.7a2.582,2.582,0,0,0-1.938.675,2.341,2.341,0,0,0-.7,1.848v3.618a2.268,2.268,0,0,0,.631,1.78,2.584,2.584,0,0,0,2.006.721h2.3v4.766c0,.745-.474,1.218-1.443,1.218h-.585c-.969,0-1.442-.473-1.442-1.218l-1.466.024a2.41,2.41,0,0,0,.631,1.8,2.709,2.709,0,0,0,2.006.721h1.126a2.67,2.67,0,0,0,2.006-.721,2.41,2.41,0,0,0,.631-1.8v-10.909a2.337,2.337,0,0,0-.7-1.848" fill="#2e3338"/>
      <path id="Path_8786" data-name="Path 8786" d="M778.995-561.4v3.93h-2.028c-.969,0-1.442-.473-1.442-1.238v-3.527c0-.744.473-1.217,1.442-1.217h.585c.969,0,1.443.473,1.443,1.217Zm.765-2.707a2.582,2.582,0,0,0-1.938-.675H776.7a2.582,2.582,0,0,0-1.938.675,2.341,2.341,0,0,0-.7,1.848v3.618a2.268,2.268,0,0,0,.631,1.78,2.584,2.584,0,0,0,2.006.721h2.3v4.766c0,.745-.474,1.218-1.443,1.218h-.585c-.969,0-1.442-.473-1.442-1.218l-1.466.024a2.41,2.41,0,0,0,.631,1.8,2.709,2.709,0,0,0,2.006.721h1.126a2.67,2.67,0,0,0,2.006-.721,2.41,2.41,0,0,0,.631-1.8v-10.909A2.337,2.337,0,0,0,779.76-564.106Z" fill="#2e3338"/>
      <path id="Path_8787" data-name="Path 8787" d="M768.161-551.374c0,.745-.474,1.218-1.442,1.218h-.586c-.969,0-1.442-.473-1.442-1.218l0-3.519c0-.746.473-1.219,1.442-1.219h.586c.969,0,1.442.473,1.442,1.219Zm-2.03-12.08h.586c.969,0,1.442.474,1.442,1.219v3.576h0c0,.745-.474,1.219-1.442,1.219h-.586c-.969,0-1.442-.474-1.442-1.219v-3.576h0c0-.745.473-1.219,1.442-1.219m2.863-.607a2.706,2.706,0,0,0-2.005-.721h-1.127a2.665,2.665,0,0,0-2.006.721,2.41,2.41,0,0,0-.631,1.8v3.624a2.41,2.41,0,0,0,.631,1.8c.02.02.048.037.07.057-.022.02-.05.036-.07.057a2.408,2.408,0,0,0-.631,1.8v3.567a2.41,2.41,0,0,0,.631,1.8,2.709,2.709,0,0,0,2.006.721h1.127a2.67,2.67,0,0,0,2.005-.721,2.41,2.41,0,0,0,.631-1.8v-3.567a2.408,2.408,0,0,0-.631-1.8c-.02-.02-.048-.037-.069-.057.021-.02.049-.037.069-.057a2.41,2.41,0,0,0,.631-1.8v-3.624a2.41,2.41,0,0,0-.631-1.8" fill="#2e3338"/>
      <path id="Path_8788" data-name="Path 8788" d="M768.161-551.374c0,.745-.474,1.218-1.442,1.218h-.586c-.969,0-1.442-.473-1.442-1.218l0-3.519c0-.746.473-1.219,1.442-1.219h.586c.969,0,1.442.473,1.442,1.219Zm-2.03-12.08h.586c.969,0,1.442.474,1.442,1.219v3.576h0c0,.745-.474,1.219-1.442,1.219h-.586c-.969,0-1.442-.474-1.442-1.219v-3.576h0C764.689-562.98,765.162-563.454,766.131-563.454Zm2.863-.607a2.706,2.706,0,0,0-2.005-.721h-1.127a2.665,2.665,0,0,0-2.006.721,2.41,2.41,0,0,0-.631,1.8v3.624a2.41,2.41,0,0,0,.631,1.8c.02.02.048.037.07.057-.022.02-.05.036-.07.057a2.408,2.408,0,0,0-.631,1.8v3.567a2.41,2.41,0,0,0,.631,1.8,2.709,2.709,0,0,0,2.006.721h1.127a2.67,2.67,0,0,0,2.005-.721,2.41,2.41,0,0,0,.631-1.8v-3.567a2.408,2.408,0,0,0-.631-1.8c-.02-.02-.048-.037-.069-.057.021-.02.049-.037.069-.057a2.41,2.41,0,0,0,.631-1.8v-3.624A2.41,2.41,0,0,0,768.994-564.061Z" fill="#2e3338"/>
      <path id="Path_8789" data-name="Path 8789" d="M789.832-551.374c0,.745-.473,1.218-1.442,1.218H787.8c-.968,0-1.442-.473-1.442-1.218l0-3.519c0-.746.474-1.219,1.442-1.219h.586c.969,0,1.442.473,1.442,1.219Zm-2.03-12.08h.586c.969,0,1.442.474,1.442,1.219v3.576h0c0,.745-.473,1.219-1.442,1.219H787.8c-.968,0-1.442-.474-1.442-1.219v-3.576h0c0-.745.474-1.219,1.442-1.219m2.863-.607a2.7,2.7,0,0,0-2.006-.721h-1.126a2.666,2.666,0,0,0-2.006.721,2.41,2.41,0,0,0-.631,1.8v3.624a2.41,2.41,0,0,0,.631,1.8c.02.02.048.037.07.057-.022.02-.05.036-.07.057a2.408,2.408,0,0,0-.631,1.8v3.567a2.41,2.41,0,0,0,.631,1.8,2.711,2.711,0,0,0,2.006.721h1.126a2.669,2.669,0,0,0,2.006-.721,2.406,2.406,0,0,0,.631-1.8v-3.567a2.4,2.4,0,0,0-.631-1.8c-.02-.02-.048-.037-.069-.057.021-.02.049-.037.069-.057a2.406,2.406,0,0,0,.631-1.8v-3.624a2.406,2.406,0,0,0-.631-1.8" fill="#2e3338"/>
      <path id="Path_8790" data-name="Path 8790" d="M789.832-551.374c0,.745-.473,1.218-1.442,1.218H787.8c-.968,0-1.442-.473-1.442-1.218l0-3.519c0-.746.474-1.219,1.442-1.219h.586c.969,0,1.442.473,1.442,1.219Zm-2.03-12.08h.586c.969,0,1.442.474,1.442,1.219v3.576h0c0,.745-.473,1.219-1.442,1.219H787.8c-.968,0-1.442-.474-1.442-1.219v-3.576h0C786.36-562.98,786.834-563.454,787.8-563.454Zm2.863-.607a2.7,2.7,0,0,0-2.006-.721h-1.126a2.666,2.666,0,0,0-2.006.721,2.41,2.41,0,0,0-.631,1.8v3.624a2.41,2.41,0,0,0,.631,1.8c.02.02.048.037.07.057-.022.02-.05.036-.07.057a2.408,2.408,0,0,0-.631,1.8v3.567a2.41,2.41,0,0,0,.631,1.8,2.711,2.711,0,0,0,2.006.721h1.126a2.669,2.669,0,0,0,2.006-.721,2.406,2.406,0,0,0,.631-1.8v-3.567a2.4,2.4,0,0,0-.631-1.8c-.02-.02-.048-.037-.069-.057.021-.02.049-.037.069-.057a2.406,2.406,0,0,0,.631-1.8v-3.624A2.406,2.406,0,0,0,790.665-564.061Z" fill="#2e3338"/>
    </g>
  </g>
</svg>
