<svg width="64" height="41" viewBox="0 0 64 41" fill="none" xmlns="http://www.w3.org/2000/svg">
<g clip-path="url(#clip0_9646_52982)">
<path d="M37.0188 25.8958H34.3219V40.1434H37.0188V25.8958Z" fill="#003B01"/>
<path d="M12.0329 18.8798C16.0365 18.8798 17.9734 16.1702 18.4707 15.3402L18.6619 15.0209L16.4835 13.599L16.2771 13.9204C15.9207 14.4747 14.5647 16.2811 12.0329 16.2811C9.95913 16.2811 8.1773 14.7218 7.7404 12.5513H19.0263C19.0716 12.2157 19.0948 11.8678 19.0948 11.5434C19.0948 7.49835 15.9268 4.20801 12.0329 4.20801C8.13905 4.20801 4.97101 7.49937 4.97101 11.5444C4.97101 15.5894 8.13905 18.8798 12.0329 18.8798ZM12.0329 6.80672C13.9074 6.80672 15.5493 8.06386 16.1704 9.95263L7.89039 9.9689C8.51051 8.06996 10.1544 6.80672 12.0329 6.80672Z" fill="#003B01"/>
<path d="M2.91335 0.637939H0.217445V18.6611H2.91335V0.637939Z" fill="#003B01"/>
<path d="M56.9381 18.8798C60.9417 18.8798 62.8785 16.1702 63.3759 15.3402L63.5671 15.0209L61.3887 13.599L61.1823 13.9204C60.8269 14.4747 59.4699 16.2811 56.9381 16.2811C54.8643 16.2811 53.0825 14.7218 52.6456 12.5513H63.9396L63.9698 12.2015C63.9889 11.9767 63.999 11.756 63.999 11.5434C63.999 7.49835 60.831 4.20801 56.9371 4.20801C53.0432 4.20801 49.8752 7.49835 49.8752 11.5434C49.8752 15.5884 53.0432 18.8788 56.9371 18.8788L56.9381 18.8798ZM56.9381 6.80672C58.8125 6.80672 60.4545 8.06386 61.0756 9.95263L52.7956 9.9689C53.4157 8.06996 55.0596 6.80672 56.9381 6.80672Z" fill="#003B01"/>
<path d="M35.6699 20.7563C34.7145 20.7563 33.9374 21.5416 33.9374 22.5068C33.9374 23.472 34.7145 24.2572 35.6699 24.2572C36.6252 24.2572 37.4024 23.472 37.4024 22.5068C37.4024 21.5416 36.6252 20.7563 35.6699 20.7563Z" fill="#003B01"/>
<path d="M42.6422 16.2688C40.3812 16.2688 38.8057 14.7564 38.8057 14.7564L37.0571 16.753C37.0571 16.753 38.9829 18.8798 42.772 18.8798C46.5612 18.8798 48.5756 17.0469 48.5756 14.7056C48.5756 11.6858 45.6995 10.9392 43.3871 10.3391C42.2455 10.0421 39.8335 9.65867 39.8335 8.44322C39.8335 7.22778 41.3174 6.8189 42.6392 6.8189C44.5951 6.8189 46.4082 7.9957 46.5401 8.10046L48.2716 6.07641C47.9776 5.82722 45.8475 4.21002 42.7016 4.21002C39.5557 4.21002 37.0561 6.0398 37.0561 8.38118C37.0561 11.401 39.9322 12.1475 42.2445 12.7476C43.4344 13.0568 45.7871 13.5257 45.7871 14.7005C45.7871 15.8752 44.2569 16.2668 42.6412 16.2668L42.6422 16.2688Z" fill="#003B01"/>
<path d="M27.9959 18.8798H28.0613C29.7586 18.8798 31.1952 18.3285 32.3297 17.3999V18.6611H35.0266V11.6207C35.0266 11.5952 35.0266 11.5698 35.0266 11.5444C35.0266 7.49935 32.0297 4.20087 27.9265 4.20087C23.8796 4.20087 20.8233 7.49935 20.8233 11.5444C20.8233 15.5894 23.7145 18.8798 27.9959 18.8798ZM27.9254 6.79754C30.3385 6.79754 32.3015 8.93245 32.3015 11.5566C32.3015 14.1807 30.3958 16.2516 28.0322 16.3136H27.9254C25.5124 16.3146 23.5494 14.1807 23.5494 11.5566C23.5494 8.93245 25.5124 6.79754 27.9254 6.79754Z" fill="#003B01"/>
<path d="M56.9381 25.6903C53.0442 25.6903 49.8762 28.9806 49.8762 33.0257C49.8762 37.0707 53.0442 40.361 56.9381 40.361C60.832 40.361 62.8785 37.6515 63.3758 36.8215L63.5671 36.5021L61.3887 35.0802L61.1823 35.4016C60.8269 35.956 59.4699 37.7623 56.9381 37.7623C54.8643 37.7623 53.0825 36.2031 52.6456 34.0326H63.9396L63.9698 33.6827C63.9889 33.4579 63.999 33.2372 63.999 33.0246C63.999 28.9796 60.831 25.6893 56.9371 25.6893L56.9381 25.6903ZM52.7956 31.4502C53.4157 29.5512 55.0596 28.288 56.9381 28.288C58.8166 28.288 60.4545 29.5451 61.0756 31.4339L52.7956 31.4502Z" fill="#003B01"/>
<path d="M25.4107 25.6822H25.3785C25.144 25.6822 24.7 25.6791 24.2128 25.7534L22.5779 20.795H15.5191V23.5188H20.631L24.0849 34.0276L26.6449 33.1711L25.0423 28.2839C25.1037 28.2809 25.1661 28.2799 25.2285 28.2799C27.6416 28.2799 29.6046 30.4148 29.6046 33.0389C29.6046 35.6631 27.6989 37.7339 25.3352 37.7959H25.2285C22.8155 37.7969 20.8525 35.6631 20.8525 33.0389C20.8525 33.0308 20.8525 33.0216 20.8525 33.0135H18.1264C18.1264 33.0135 18.1264 33.0216 18.1264 33.0267C18.1264 37.0718 21.0367 40.3621 25.2567 40.3621H25.298C29.3771 40.3621 32.3287 37.0707 32.3287 33.0267C32.3287 28.9827 29.1254 25.6822 25.4107 25.6822Z" fill="#003B01"/>
<path d="M7.17263 40.3621H7.23807C8.93534 40.3621 10.3719 39.8108 11.5064 38.8822V40.1434H14.2033V33.104C14.2033 33.0786 14.2033 33.0531 14.2033 33.0277C14.2033 28.9827 11.2064 25.6842 7.10317 25.6842C3.0563 25.6832 0 28.9817 0 33.0267C0 37.0717 2.8912 40.3621 7.17263 40.3621ZM7.10216 28.2799C9.51519 28.2799 11.4782 30.4148 11.4782 33.0389C11.4782 35.663 9.57257 37.7339 7.20887 37.7959H7.10216C4.68914 37.7969 2.7261 35.663 2.7261 33.0389C2.7261 30.4148 4.68914 28.2799 7.10216 28.2799Z" fill="#003B01"/>
<path d="M50.3483 25.8947H46.7535L42.0351 31.3017H41.9465V22.1335H39.297V40.1424H41.9465V34.053H42.0291L46.7444 40.1515H50.1661L44.4069 32.7033L50.3483 25.8947Z" fill="#003B01"/>
</g>
<defs>
<clipPath id="clip0_9646_52982">
<rect width="64" height="39.7241" fill="white" transform="translate(0 0.637939)"/>
</clipPath>
</defs>
</svg>
