<svg xmlns="http://www.w3.org/2000/svg" viewBox="0 0 1600 900" role="img" aria-labelledby="title desc">
  <title id="title">Placeholder hero image</title>
  <desc id="desc">Abstract placeholder image for the homepage banner.</desc>
  <defs>
    <linearGradient id="sky" x1="0" y1="0" x2="1" y2="1">
      <stop offset="0%" stop-color="#233b38" />
      <stop offset="55%" stop-color="#4f6d62" />
      <stop offset="100%" stop-color="#d7c6a4" />
    </linearGradient>
    <linearGradient id="ground" x1="0" y1="0" x2="1" y2="0">
      <stop offset="0%" stop-color="#9d8465" />
      <stop offset="100%" stop-color="#705841" />
    </linearGradient>
  </defs>
  <rect width="1600" height="900" fill="url(#sky)" />
  <circle cx="1180" cy="220" r="150" fill="#f2dfb4" fill-opacity="0.85" />
  <path d="M0 620 C220 520 340 540 520 610 C690 675 780 690 930 650 C1100 605 1260 560 1600 640 V900 H0 Z" fill="url(#ground)" />
  <path d="M0 690 C200 620 390 650 560 715 C770 795 930 800 1120 735 C1300 675 1425 660 1600 710 V900 H0 Z" fill="#493a2e" fill-opacity="0.8" />
  <g fill="#efe2c7" fill-opacity="0.18">
    <rect x="130" y="130" width="300" height="140" rx="24" />
    <rect x="1030" y="470" width="370" height="190" rx="28" />
  </g>
</svg>
